<?xml version="1.0" standalone="no"?><svg xmlns="http://www.w3.org/2000/svg" viewBox="0 0 1440 320"><path fill="#f3f4f5" fill-opacity="1" d="M0,192L40,181.3C80,171,160,149,240,133.3C320,117,400,107,480,112C560,117,640,139,720,170.7C800,203,880,245,960,229.3C1040,213,1120,139,1200,106.7C1280,75,1360,85,1400,90.7L1440,96L1440,320L1400,320C1360,320,1280,320,1200,320C1120,320,1040,320,960,320C880,320,800,320,720,320C640,320,560,320,480,320C400,320,320,320,240,320C160,320,80,320,40,320L0,320Z"></path></svg>